<?xml version="1.0" standalone="no"?>
<!DOCTYPE svg PUBLIC "-//W3C//DTD SVG 20010904//EN"
 "http://www.w3.org/TR/2001/REC-SVG-20010904/DTD/svg10.dtd">
<svg version="1.0" xmlns="http://www.w3.org/2000/svg"
 width="1280.000000pt" height="1280.000000pt" viewBox="0 0 1280.000000 1280.000000"
 preserveAspectRatio="xMidYMid meet">
<metadata>
Created by potrace 1.14, written by Peter Selinger 2001-2017
</metadata>
<g transform="translate(0.000000,1280.000000) scale(0.100000,-0.100000)"
fill="#000000" stroke="none">
<path d="M5877 12483 c-3 -4 -46 -152 -96 -328 -50 -176 -100 -349 -111 -385
-10 -36 -28 -96 -39 -135 -109 -378 -158 -551 -192 -670 -21 -77 -47 -165 -56
-195 -9 -30 -16 -55 -15 -55 1 0 -5 -22 -14 -50 -9 -27 -29 -95 -44 -150 -16
-55 -71 -248 -124 -430 -52 -181 -113 -395 -136 -475 -22 -80 -47 -165 -54
-190 -8 -25 -33 -112 -56 -195 -24 -82 -48 -155 -54 -162 -6 -6 -42 -14 -80
-18 -38 -3 -79 -7 -90 -10 -12 -2 -45 -7 -74 -10 -28 -3 -67 -7 -85 -10 -17
-2 -54 -7 -82 -10 -27 -3 -63 -8 -80 -10 -16 -3 -48 -7 -70 -10 -54 -5 -400
-74 -595 -117 -25 -5 -58 -12 -75 -14 -16 -3 -55 -11 -85 -19 -30 -7 -77 -16
-105 -20 -27 -4 -57 -11 -66 -16 -53 -28 -147 -29 -404 -3 -121 12 -145 13
-148 6 -2 -4 -1 -41 4 -82 4 -41 10 -106 14 -145 4 -38 9 -73 12 -77 7 -13 -6
-9 -33 8 -13 9 -26 15 -29 13 -2 -3 -7 -27 -10 -54 -3 -28 -10 -81 -15 -120
-15 -109 -30 -278 -38 -425 -13 -253 -6 -791 12 -900 2 -14 7 -59 11 -100 10
-110 15 -149 31 -207 86 -324 87 -327 171 -470 14 -24 22 -44 19 -44 -3 -1 -9
-2 -13 -3 -31 -7 -404 -131 -430 -142 -17 -8 -35 -14 -40 -14 -5 0 -28 -9 -51
-20 -22 -11 -45 -20 -50 -20 -5 0 -22 -6 -38 -14 -16 -8 -94 -40 -174 -71 -80
-31 -172 -68 -205 -82 -104 -44 -119 -50 -165 -68 -25 -9 -67 -29 -95 -45 -52
-29 -262 -120 -376 -163 -75 -29 -346 -162 -369 -182 -8 -7 -55 -30 -105 -51
-49 -21 -108 -50 -130 -64 -22 -15 -85 -51 -140 -80 -212 -112 -301 -184 -381
-305 -18 -27 -44 -66 -59 -85 -14 -19 -35 -53 -45 -76 -11 -22 -44 -67 -75
-98 -55 -57 -55 -58 -55 -120 0 -110 85 -399 170 -581 29 -60 72 -157 95 -215
63 -155 111 -263 161 -370 25 -52 56 -133 69 -180 13 -47 32 -112 42 -145 20
-64 23 -224 9 -455 -12 -213 52 -321 319 -536 33 -26 105 -88 160 -137 162
-146 168 -151 215 -187 25 -19 82 -66 126 -105 77 -66 240 -186 439 -320 50
-33 167 -99 260 -147 162 -81 313 -138 585 -218 41 -12 120 -37 175 -55 55
-19 168 -47 250 -64 83 -17 204 -42 270 -56 140 -30 155 -32 300 -50 22 -3
118 -17 214 -31 l174 -25 77 -82 c43 -45 100 -106 127 -135 27 -29 58 -54 69
-56 10 -2 46 -7 79 -11 32 -4 67 -8 76 -10 60 -12 122 -15 132 -7 7 5 57 28
112 52 55 24 142 63 193 87 52 23 95 43 97 43 2 0 41 18 88 40 85 39 131 53
217 64 25 3 124 20 220 37 96 17 204 35 240 40 67 10 106 16 150 24 14 2 51 6
83 9 149 15 180 19 292 36 66 11 145 22 175 25 30 4 70 8 87 10 18 3 57 7 85
11 29 3 76 9 103 14 28 5 66 12 85 15 19 3 46 7 60 10 14 2 41 6 60 9 19 3 89
15 155 26 190 33 228 40 264 46 18 3 43 8 55 10 24 4 116 21 161 28 17 3 118
22 225 41 107 20 209 39 225 41 76 14 223 45 365 78 85 20 180 40 210 46 92
15 433 88 470 100 19 6 130 36 245 66 116 30 215 56 220 58 6 1 30 8 55 15
207 56 417 118 535 156 22 7 105 38 185 68 80 30 195 72 255 92 61 21 142 52
180 70 39 17 95 42 125 56 109 48 430 215 520 269 8 5 73 44 144 86 161 96
393 264 472 342 32 32 88 83 124 112 36 29 84 74 108 100 23 26 83 90 133 141
131 136 232 264 272 345 19 39 46 91 60 115 62 106 91 236 96 432 l2 77 -45
47 c-41 42 -72 89 -144 213 -105 183 -190 311 -235 354 -66 61 -360 274 -582
421 -223 147 -558 343 -709 415 -165 78 -539 240 -554 240 -7 0 -20 4 -30 10
-16 9 -245 85 -427 143 -106 34 -332 92 -425 111 -73 14 -105 19 -200 31 -25
3 -74 10 -110 15 -118 17 -134 19 -235 25 -55 3 -116 8 -135 10 -155 20 -504
26 -677 11 -51 -4 -93 -6 -93 -4 0 2 7 39 15 83 9 44 18 98 21 120 5 34 15 96
59 365 2 14 32 192 66 395 33 204 63 386 65 405 3 19 9 55 14 80 5 25 11 63
14 85 5 38 10 66 21 125 3 14 7 43 11 65 3 22 12 78 20 125 18 101 21 138 29
335 3 83 8 177 10 210 2 33 7 132 10 220 4 88 7 162 7 165 1 21 -7 33 -44 58
-24 16 -61 33 -83 37 -60 12 -58 12 -136 30 -40 9 -91 18 -113 21 -23 3 -57 7
-76 9 -65 8 -115 16 -210 37 -118 25 -232 44 -313 53 -34 4 -69 8 -77 10 -8 1
-44 6 -80 10 -36 4 -74 9 -84 11 -18 3 -64 9 -166 20 -25 2 -56 6 -70 9 -14 2
-47 7 -75 9 -27 3 -88 10 -135 16 -145 16 -182 19 -285 25 -55 3 -113 8 -130
10 -16 2 -66 6 -110 10 -44 4 -89 9 -100 12 -11 2 -155 7 -320 10 -165 3 -301
7 -303 8 -2 2 22 83 53 181 31 99 72 230 91 292 19 61 50 165 70 230 20 64 49
162 65 217 16 55 36 118 43 140 8 22 40 121 71 220 30 99 66 212 79 250 54
162 101 326 241 850 122 457 167 637 176 704 10 73 10 74 -18 103 -38 40 -152
130 -183 145 -49 22 -86 33 -171 52 -88 19 -283 28 -292 14z m-2962 -4397 c4
-50 8 -97 10 -105 1 -9 6 -54 10 -101 4 -47 9 -92 10 -102 2 -9 6 -52 10 -95
3 -43 8 -89 10 -103 2 -14 6 -56 10 -95 3 -38 8 -83 10 -100 3 -16 7 -59 10
-95 3 -36 7 -83 10 -105 5 -47 13 -126 20 -210 7 -71 14 -138 21 -182 3 -18 3
-33 0 -33 -18 0 -103 230 -119 320 -3 14 -12 63 -20 110 -9 47 -19 110 -22
140 -4 30 -9 58 -10 61 -5 7 -19 210 -18 259 0 19 4 85 8 145 20 274 32 392
40 384 1 -2 6 -44 10 -93z"/>
</g>
</svg>
